<svg width="512" height="512" viewBox="0 0 512 512" fill="none" xmlns="http://www.w3.org/2000/svg">
<circle cx="268.5" cy="256.5" r="211.5" fill="#7BB401"/>
<path d="M199.734 185.595H203.583C209.431 185.595 214.172 180.852 214.172 175.005V145.782V134.852C214.172 129.004 209.431 124.262 203.583 124.262H199.734C193.886 124.262 189.145 129.004 189.145 134.852V145.783V175.005C189.145 180.852 193.886 185.595 199.734 185.595Z" fill="#FEFEFE"/>
<path d="M335.561 185.333H339.41C345.258 185.333 349.999 180.591 349.999 174.743V143.009V134.589C349.999 128.742 345.258 124 339.41 124H335.561C329.712 124 324.971 128.742 324.971 134.589V143.009V174.742C324.972 180.591 329.713 185.333 335.561 185.333Z" fill="#FEFEFE"/>
<path d="M385.785 145.782H358.607V177.516C358.607 188.102 349.996 193.94 339.411 193.94H335.562C324.977 193.94 316.365 185.328 316.365 174.742V145.782H222.781V175.005C222.781 185.591 214.169 194.203 203.583 194.203H199.735C189.149 194.203 180.538 185.591 180.538 175.005V145.782H151.216C141.723 145.782 134 153.505 134 162.998V371.026C134 380.519 141.723 388.242 151.216 388.242H385.785C395.278 388.242 403 380.519 403 371.026V162.998C403.001 153.506 395.278 145.782 385.785 145.782ZM385.785 371.026H151.216L151.216 213.929H385.788L385.797 371.025C385.796 371.025 385.793 371.026 385.785 371.026Z" fill="#FEFEFE"/>
<path d="M277.388 266.624H308.299C309.524 266.624 310.518 265.63 310.518 264.405V237.638C310.518 236.413 309.524 235.419 308.299 235.419H277.388C276.162 235.419 275.169 236.413 275.169 237.638V264.405C275.169 265.63 276.162 266.624 277.388 266.624Z" fill="#FEFEFE"/>
<path d="M327.834 266.624H358.746C359.971 266.624 360.965 265.63 360.965 264.405V237.638C360.965 236.413 359.971 235.419 358.746 235.419H327.834C326.609 235.419 325.616 236.413 325.616 237.638V264.405C325.616 265.63 326.609 266.624 327.834 266.624Z" fill="#FEFEFE"/>
<path d="M176.496 310.445H207.407C208.632 310.445 209.625 309.451 209.625 308.226V281.459C209.625 280.233 208.632 279.24 207.407 279.24H176.496C175.27 279.24 174.277 280.233 174.277 281.459V308.226C174.277 309.451 175.27 310.445 176.496 310.445Z" fill="#FEFEFE"/>
<path d="M226.942 310.445H257.853C259.078 310.445 260.072 309.451 260.072 308.226V281.459C260.072 280.233 259.078 279.24 257.853 279.24H226.942C225.717 279.24 224.723 280.233 224.723 281.459V308.226C224.723 309.451 225.717 310.445 226.942 310.445Z" fill="#FEFEFE"/>
<path d="M277.388 310.445H308.299C309.524 310.445 310.518 309.451 310.518 308.226V281.459C310.518 280.233 309.524 279.24 308.299 279.24H277.388C276.163 279.24 275.169 280.233 275.169 281.459V308.226C275.169 309.451 276.163 310.445 277.388 310.445Z" fill="#FEFEFE"/>
<path d="M327.834 310.445H358.746C359.971 310.445 360.965 309.451 360.965 308.226V281.459C360.965 280.233 359.971 279.24 358.746 279.24H327.834C326.609 279.24 325.616 280.233 325.616 281.459V308.226C325.616 309.451 326.609 310.445 327.834 310.445Z" fill="#FEFEFE"/>
<path d="M207.407 323.061H176.496C175.271 323.061 174.278 324.054 174.278 325.28V352.047C174.278 353.272 175.271 354.266 176.496 354.266H207.407C208.633 354.266 209.626 353.272 209.626 352.047V325.28C209.625 324.054 208.632 323.061 207.407 323.061Z" fill="#FEFEFE"/>
<path d="M257.853 323.061H226.943C225.717 323.061 224.724 324.054 224.724 325.28V352.047C224.724 353.272 225.717 354.266 226.943 354.266H257.853C259.079 354.266 260.072 353.272 260.072 352.047V325.28C260.072 324.054 259.079 323.061 257.853 323.061Z" fill="#FEFEFE"/>
<path d="M308.3 323.061H277.389C276.163 323.061 275.17 324.054 275.17 325.28V352.047C275.17 353.272 276.163 354.266 277.389 354.266H308.3C309.526 354.266 310.519 353.272 310.519 352.047V325.28C310.519 324.054 309.526 323.061 308.3 323.061Z" fill="#FEFEFE"/>
<path d="M358.746 323.061H327.834C326.609 323.061 325.616 324.054 325.616 325.28V352.047C325.616 353.272 326.609 354.266 327.834 354.266H358.746C359.971 354.266 360.965 353.272 360.965 352.047V325.28C360.965 324.054 359.971 323.061 358.746 323.061Z" fill="#FEFEFE"/>
</svg>
