<svg width="512" height="512" viewBox="0 0 512 512" fill="none" xmlns="http://www.w3.org/2000/svg">
<circle cx="268.5" cy="256.5" r="211.5" fill="#7BB401"/>
<path d="M389.062 135.659L275.256 383.964C274.304 386.044 272.689 387.75 270.664 388.814C268.64 389.879 266.319 390.243 264.066 389.848C261.813 389.454 259.753 388.324 258.211 386.635C256.668 384.946 255.728 382.793 255.539 380.514L245.917 265.086L130.49 255.464C128.21 255.275 126.057 254.335 124.368 252.793C122.679 251.25 121.549 249.191 121.155 246.937C120.761 244.684 121.124 242.363 122.189 240.339C123.253 238.314 124.959 236.699 127.039 235.747L375.344 121.941C377.263 121.061 379.406 120.79 381.484 121.163C383.562 121.537 385.477 122.537 386.97 124.03C388.463 125.523 389.463 127.438 389.837 129.516C390.21 131.594 389.942 133.74 389.062 135.659Z" fill="#FEFEFE"/>
</svg>
